Coordinates
version=1
nRows=9
nColumns=42
inDegrees=yes

Units are S.I. units (second, meters, Newtons, ...)
If the header above contains a line with 'inDegrees', this indicates whether rotational values are in degrees (yes) or radians (no).

endheader
time	pelvis_tilt	pelvis_list	pelvis_rotation	pelvis_tx	pelvis_ty	pelvis_tz	hip_flexion_r	hip_adduction_r	hip_rotation_r	knee_angle_r	knee_adduction_r	knee_angle_r_beta	ankle_angle_r	subtalar_angle_r	mtp_angle_r	hip_flexion_l	hip_adduction_l	hip_rotation_l	knee_angle_l	knee_adduction_l	knee_angle_l_beta	ankle_angle_l	subtalar_angle_l	mtp_angle_l	lumbar_extension	lumbar_bending	lumbar_rotation	arm_flex_r	arm_add_r	arm_rot_r	elbow_flex_r	pro_sup_r	wrist_flex_r	wrist_dev_r	arm_flex_l	arm_add_l	arm_rot_l	elbow_flex_l	pro_sup_l	wrist_flex_l	wrist_dev_l
      1.74000000	     21.67907271	      1.95986759	     -4.31129708	      1.63545693	      0.98155604	     -0.05519133	    -21.57924766	     -3.39702991	     -2.36859400	     61.03247933	     -5.98363327	      1.06521772	     -5.21898986	     -4.39496211	     -7.50471255	      0.14460680	      4.30544419	    -16.48114405	     31.03802400	     -8.17287314	      0.54171571	      9.12163168	     13.84124146	     -7.50471255	    -41.35372187	     -5.70116425	      6.12299499	      4.47207414	    -15.73877453	     -3.98097432	     58.78872599	     90.00000001	      0.00000000	      0.00000000	      1.08473046	    -15.39182722	     -1.46035884	     49.05669874	     90.00000001	      0.00000000	      0.00000000
      1.75000000	     21.68886898	      2.01030892	     -4.27780847	      1.64818558	      0.98417510	     -0.05617448	    -19.90932539	     -3.35483414	     -2.29861646	     62.81097899	     -6.09702518	      1.09625839	     -4.54604451	     -4.85033492	     -7.50461639	     -1.14379669	      4.45904614	    -16.78673684	     30.18896511	     -8.11135736	      0.52689684	      9.64744526	     14.38237528	     -7.50461639	    -41.35581403	     -5.65267581	      5.82486389	      4.17861042	    -15.68317379	     -3.91555069	     58.59909193	     90.00000001	      0.00000000	      0.00000000	      1.55498933	    -15.64447185	     -1.49483246	     49.44563521	     90.00000001	      0.00000000	      0.00000000
      1.76000000	     21.70933471	      1.87547148	     -4.21504242	      1.66082995	      0.98673659	     -0.05709175	    -18.29253463	     -3.06342792	     -1.80319028	     64.23092049	     -5.82308811	      1.12104104	     -3.89136740	     -5.87625195	     -7.50427469	     -2.35115524	      4.28687965	    -17.98507233	     29.42548225	     -8.35218801	      0.51357155	     10.47385174	     16.90348428	     -7.50427469	    -41.36050779	     -5.40929030	      5.55946656	      4.01034483	    -15.68107772	     -3.71873404	     58.31549783	     90.00000001	      0.00000000	      0.00000000	      1.83935658	    -15.96777954	     -1.37406288	     50.17263559	     90.00000001	      0.00000000	      0.00000000
      1.77000000	     21.70986027	      1.78506556	     -4.09286234	      1.67331646	      0.98923282	     -0.05811904	    -16.64062308	     -2.83755815	     -1.75253210	     65.28231920	     -5.78340816	      1.13939141	     -2.82973421	     -6.10064548	     -7.50401493	     -3.60480579	      4.24466110	    -18.49731721	     28.55591995	     -8.35553297	      0.49839482	     11.01735023	     18.17246517	     -7.50401493	    -41.37336140	     -5.16058513	      5.29772265	      3.72071738	    -15.71631073	     -3.63644069	     58.21888192	     90.00000001	      0.00000000	      0.00000000	      2.24158296	    -16.24072987	     -1.31919765	     50.75950456	     90.00000001	      0.00000000	      0.00000000
      1.78000000	     21.69293186	      1.70279274	     -3.89870574	      1.68564911	      0.99162824	     -0.05922376	    -14.98085553	     -2.61296742	     -1.91167088	     65.96175581	     -5.79432574	      1.15124982	     -1.73278584	     -6.31700868	     -7.50392250	     -4.86316287	      4.25682859	    -18.56454057	     27.63925627	     -8.24160094	      0.48239602	     11.36168039	     18.70593192	     -7.50392250	    -41.38377552	     -4.87404732	      5.00657238	      3.42345936	    -15.75419858	     -3.61644088	     58.15951647	     90.00000001	      0.00000000	      0.00000000	      2.74879121	    -16.49557571	     -1.33698011	     51.20282693	     90.00000001	      0.00000000	      0.00000000
      1.79000000	     21.61466035	      1.51755344	     -3.71595435	      1.69787670	      0.99382579	     -0.06031446	    -13.27210135	     -2.25260636	     -2.01494126	     66.26335568	     -5.79421164	      1.15651373	     -0.88689289	     -6.39551790	     -7.50387153	     -6.03973069	      4.14281447	    -18.67789469	     26.75021809	     -8.12589165	      0.46687938	     11.61032267	     18.98603777	     -7.50387153	    -41.33737477	     -4.47545945	      4.79656920	      3.14404445	    -15.82389411	     -3.62091575	     58.10603311	     90.00000001	      0.00000000	      0.00000000	      3.22945691	    -16.69417312	     -1.35734610	     51.61820385	     90.00000001	      0.00000000	      0.00000000
      1.80000000	     21.69180524	      1.43546933	     -3.46094328	      1.71010012	      0.99591171	     -0.06149031	    -11.81126295	     -2.08526254	     -2.10456196	     66.22978102	     -5.49582236	      1.15592774	      0.67676098	     -6.42804427	     -7.50377641	     -7.36969898	      4.14325995	    -18.78017880	     25.84241765	     -8.05443696	      0.45103527	     12.08366996	     20.14444301	     -7.50377641	    -41.45060106	     -4.14934455	      4.52558757	      2.75310462	    -15.92972646	     -3.65996993	     58.18732609	     90.00000001	      0.00000000	      0.00000000	      3.67887747	    -17.01186732	     -1.26507834	     52.40602239	     90.00000001	      0.00000000	      0.00000000
      1.81000000	     21.74188978	      1.23439014	     -3.24717806	      1.72229539	      0.99771433	     -0.06252516	    -10.36460108	     -1.74021837	     -2.15631237	     65.82483653	     -5.31008337	      1.14886013	      1.89889322	     -5.97808659	     -7.50357289	     -8.56908627	      3.91845120	    -19.62505856	     25.06956861	     -8.17141017	      0.43754651	     12.59733613	     22.14462980	     -7.50357289	    -41.54108014	     -3.74429704	      4.39294050	      2.30032397	    -16.08345710	     -3.77902989	     58.49032032	     90.00000001	      0.00000000	      0.00000000	      3.97679175	    -17.38913099	     -0.91237542	     53.49285155	     90.00000001	      0.00000000	      0.00000000
      1.82000000	     21.58127090	      1.14023717	     -2.92681076	      1.73419617	      0.99905539	     -0.06363797	     -8.66002693	     -1.53273343	     -2.34265471	     65.19772063	     -5.02968877	      1.13791489	      2.28489463	     -5.93297204	     -7.50354132	     -9.43791140	      3.77927608	    -19.82927406	     24.56222898	     -8.04448160	      0.42869177	     12.70892353	     22.05580077	     -7.50354132	    -41.43320958	     -3.37794478	      4.01571104	      2.06971169	    -16.18347843	     -3.81699537	     58.45287957	     90.00000001	      0.00000000	      0.00000000	      4.60837924	    -17.65021498	     -0.98491394	     53.82361194	     90.00000001	      0.00000000	      0.00000000
